<svg xmlns="http://www.w3.org/2000/svg" viewBox="0 0 32 32" shape-rendering="crispEdges">
  <rect width="32" height="32" fill="#141a4a"/>
  <path d="M7 0h18l7 7v18l-7 7H7l-7-7V7z" fill="#F08A3C"/>
  <path d="M8 2h16l6 6v16l-6 6H8l-6-6V8z" fill="#E03A2F"/>
  <g fill="#1B0705" transform="translate(8,8)">
    <rect x="7" y="5" width="2" height="2"/><rect x="6" y="7" width="4" height="4"/>
    <rect x="4" y="4" width="1" height="1"/><rect x="11" y="4" width="1" height="1"/>
    <rect x="5" y="5" width="1" height="1"/><rect x="10" y="5" width="1" height="1"/>
    <rect x="3" y="6" width="3" height="1"/><rect x="10" y="6" width="3" height="1"/>
    <rect x="2" y="7" width="1" height="2"/><rect x="13" y="7" width="1" height="2"/>
    <rect x="3" y="9" width="3" height="1"/><rect x="10" y="9" width="3" height="1"/>
    <rect x="2" y="10" width="1" height="2"/><rect x="13" y="10" width="1" height="2"/>
    <rect x="4" y="12" width="1" height="1"/><rect x="11" y="12" width="1" height="1"/>
    <rect x="5" y="11" width="1" height="1"/><rect x="10" y="11" width="1" height="1"/>
  </g>
</svg>
